<svg width="80" height="80" viewBox="0 0 80 80" fill="none" xmlns="http://www.w3.org/2000/svg">
<path d="M57.3333 70.6667H17.3333V73.3334C17.3333 76.2787 19.7213 78.6667 22.6666 78.6667H65.3333C68.2786 78.6667 70.6666 76.2787 70.6666 73.3334V14.6667C70.6666 11.7214 68.2786 9.33337 65.3333 9.33337H62.6666V65.3334C62.6666 68.2787 60.2786 70.6667 57.3333 70.6667Z" fill="#CCB2FF"/>
<path d="M50.6667 8.00004L54.6667 12V1.33337H46.6667V12L50.6667 8.00004Z" fill="#CCB2FF"/>
<path d="M17.3333 13.3334V24H28V13.3334H17.3333Z" fill="#CCB2FF"/>
<path d="M17.3333 32V42.6667H28V32H17.3333Z" fill="#CCB2FF"/>
<path d="M17.3333 49.3334H28V60H17.3333V49.3334Z" fill="#CCB2FF"/>
<path d="M65.3333 8H64V6.66667C63.9954 2.98633 61.0137 0.0045573 57.3333 0H14.6667C10.9863 0.0045573 8.00456 2.98633 8 6.66667V65.3333C8.00456 69.0137 10.9863 71.9954 14.6667 72H16V73.3333C16.0046 77.0137 18.9863 79.9954 22.6667 80H65.3333C69.0137 79.9954 71.9954 77.0137 72 73.3333V14.6667C71.9954 10.9863 69.0137 8.00456 65.3333 8ZM53.3333 2.66667V8.78125L51.6094 7.05729C51.0885 6.53711 50.2448 6.53711 49.724 7.05729L48 8.78125V2.66667H53.3333ZM10.6667 65.3333V6.66667C10.6667 4.45768 12.4577 2.66667 14.6667 2.66667H45.3333V12C45.3333 12.5391 45.6582 13.0254 46.1563 13.2318C46.6543 13.4382 47.2279 13.3236 47.6094 12.9427L50.6667 9.88542L53.724 12.9427C54.1055 13.3236 54.679 13.4382 55.1771 13.2318C55.6751 13.0254 56 12.5391 56 12V2.66667H57.3333C59.5423 2.66667 61.3333 4.45768 61.3333 6.66667V65.3333C61.3333 67.5423 59.5423 69.3333 57.3333 69.3333H14.6667C12.4577 69.3333 10.6667 67.5423 10.6667 65.3333ZM69.3333 73.3333C69.3333 75.5423 67.5423 77.3333 65.3333 77.3333H22.6667C20.4577 77.3333 18.6667 75.5423 18.6667 73.3333V72H57.3333C61.0137 71.9954 63.9954 69.0137 64 65.3333V10.6667H65.3333C67.5423 10.6667 69.3333 12.4577 69.3333 14.6667V73.3333Z" fill="#747474" fill-opacity="0.57"/>
<path d="M29.2415 12.873C29.0495 12.3522 28.5553 12.0039 28 12H17.3333C16.597 12 16 12.597 16 13.3333V24C16 24.7363 16.597 25.3333 17.3333 25.3333H28C28.7363 25.3333 29.3333 24.7363 29.3333 24V16.552L32.9427 12.9427L31.0573 11.0573L29.2415 12.873ZM26.6667 22.6666H18.6667V14.6666H26.6667V15.4479L24 18.1145L22.276 16.3906L20.3906 18.276L23.0573 20.9427C23.5781 21.4628 24.4219 21.4628 24.9427 20.9427L26.6667 19.2187V22.6666Z" fill="#747474" fill-opacity="0.57"/>
<path d="M31.0573 29.724L29.2415 31.5398C29.0495 31.0189 28.5553 30.6706 28 30.6667H17.3333C16.597 30.6667 16 31.2637 16 32V42.6667C16 43.403 16.597 44 17.3333 44H28C28.7363 44 29.3333 43.403 29.3333 42.6667V35.2188L32.9427 31.6094L31.0573 29.724ZM26.6667 41.3334H18.6667V33.3334H26.6667V34.1146L24 36.7813L22.276 35.0573L20.3906 36.9427L23.0573 39.6094C23.5781 40.1296 24.4219 40.1296 24.9427 39.6094L26.6667 37.8855V41.3334Z" fill="#747474" fill-opacity="0.57"/>
<path d="M28 48H17.3333C16.597 48 16 48.597 16 49.3333V60C16 60.7363 16.597 61.3333 17.3333 61.3333H28C28.7363 61.3333 29.3333 60.7363 29.3333 60V49.3333C29.3333 48.597 28.7363 48 28 48ZM26.6667 58.6667H18.6667V50.6667H26.6667V58.6667Z" fill="#747474" fill-opacity="0.57"/>
<path d="M34.6667 20H48V22.6667H34.6667V20Z" fill="#747474" fill-opacity="0.57"/>
<path d="M34.6667 14.6666H42.6667V17.3333H34.6667V14.6666Z" fill="#747474" fill-opacity="0.57"/>
<path d="M34.6667 38.6666H48V41.3333H34.6667V38.6666Z" fill="#747474" fill-opacity="0.57"/>
<path d="M34.6667 33.3334H42.6667V36H34.6667V33.3334Z" fill="#747474" fill-opacity="0.57"/>
<path d="M34.6667 56H48V58.6667H34.6667V56Z" fill="#747474" fill-opacity="0.57"/>
<path d="M34.6667 50.6666H42.6667V53.3333H34.6667V50.6666Z" fill="#747474" fill-opacity="0.57"/>
<path d="M45.3333 50.6666H48V53.3333H45.3333V50.6666Z" fill="#747474" fill-opacity="0.57"/>
</svg>
